<?xml version="1.0" standalone="no"?>
<!DOCTYPE svg PUBLIC "-//W3C//DTD SVG 20010904//EN"
 "http://www.w3.org/TR/2001/REC-SVG-20010904/DTD/svg10.dtd">
<svg version="1.0" xmlns="http://www.w3.org/2000/svg"
 width="700.000000pt" height="700.000000pt" viewBox="0 0 700.000000 700.000000"
 preserveAspectRatio="xMidYMid meet">
<metadata>
Created by potrace 1.11, written by Peter Selinger 2001-2013
</metadata>
<g transform="translate(0.000000,700.000000) scale(0.100000,-0.100000)"
fill="#000000" stroke="none">
<path d="M0 3500 l0 -3500 3500 0 3500 0 0 3500 0 3500 -3500 0 -3500 0 0
-3500z m4379 1535 c234 -134 430 -250 436 -257 17 -18 567 -2081 573 -2144 11
-130 -75 -274 -203 -342 -11 -5 -375 -105 -810 -222 -434 -116 -981 -263
-1215 -326 -234 -63 -453 -120 -488 -127 -141 -26 -290 46 -366 175 -27 48
-683 2473 -693 2566 -13 120 61 265 168 329 33 20 105 46 184 67 72 19 249 67
395 106 146 39 407 109 580 155 173 47 464 125 645 174 182 49 339 90 350 90
11 1 211 -109 444 -244z"/>
<path d="M3515 4800 c-167 -46 -384 -104 -1045 -281 -272 -72 -496 -133 -498
-134 -4 -4 177 -677 183 -683 6 -6 1707 447 1716 457 4 3 -34 158 -84 344 -82
305 -93 337 -111 336 -12 0 -84 -17 -161 -39z"/>
<path d="M3425 3596 c-145 -33 -259 -99 -359 -207 -234 -253 -234 -648 0 -908
55 -62 172 -141 251 -171 186 -71 365 -60 553 32 67 33 102 58 165 122 134
135 195 282 195 471 0 298 -184 551 -465 641 -99 32 -250 41 -340 20z"/>
</g>
</svg>
